<svg width="96" height="96" viewBox="0 0 96 96" fill="none" xmlns="http://www.w3.org/2000/svg">
<mask id="mask0_1432_13" style="mask-type:alpha" maskUnits="userSpaceOnUse" x="0" y="0" width="96" height="96">
<rect width="96" height="96" fill="#D9D9D9"/>
</mask>
<g mask="url(#mask0_1432_13)">
<path d="M38.2 48L67.6 77.4C68.6 78.4 69.0834 79.5666 69.05 80.9C69.0167 82.2333 68.5 83.4 67.5 84.4C66.5 85.4 65.3334 85.9 64 85.9C62.6667 85.9 61.5 85.4 60.5 84.4L29.7 53.7C28.9 52.9 28.3 52 27.9 51C27.5 50 27.3 49 27.3 48C27.3 47 27.5 46 27.9 45C28.3 44 28.9 43.1 29.7 42.3L60.5 11.5C61.5 10.5 62.6834 10.0166 64.05 10.05C65.4167 10.0833 66.6 10.6 67.6 11.6C68.6 12.6 69.1 13.7666 69.1 15.1C69.1 16.4333 68.6 17.6 67.6 18.6L38.2 48Z" fill="white"/>
</g>
</svg>
